<svg xmlns="http://www.w3.org/2000/svg" xmlns:xlink="http://www.w3.org/1999/xlink" zoomAndPan="magnify" preserveAspectRatio="xMidYMid meet" version="1.0" viewBox="120.92 148.39 127.11 60.57"><defs><g/><clipPath id="71b5d5462c"><path d="M 125.480469 148.390625 L 224 148.390625 L 224 182 L 125.480469 182 Z M 125.480469 148.390625 " clip-rule="nonzero"/></clipPath><clipPath id="21817318e9"><path d="M 184 149 L 241.78125 149 L 241.78125 182 L 184 182 Z M 184 149 " clip-rule="nonzero"/></clipPath></defs><g fill="#ffbd59" fill-opacity="1"><g transform="translate(118.807373, 207.776206)"><g><path d="M 14.664062 -5.339844 C 14.664062 -6.695312 14.324219 -7.855469 13.675781 -8.757812 C 12.996094 -9.664062 12.09375 -10.285156 10.988281 -10.59375 C 11.640625 -10.878906 12.207031 -11.386719 12.628906 -12.148438 C 12.828125 -12.488281 12.96875 -12.828125 13.082031 -13.195312 C 13.195312 -13.5625 13.25 -14.070312 13.25 -14.71875 C 13.25 -15.339844 13.082031 -15.992188 12.796875 -16.613281 C 11.949219 -18.335938 10.113281 -19.210938 7.316406 -19.210938 L 2.117188 -19.210938 L 2.117188 0 L 7.996094 0 C 9.945312 0 11.5 -0.421875 12.683594 -1.328125 C 13.277344 -1.78125 13.757812 -2.375 14.125 -3.109375 C 14.464844 -3.8125 14.664062 -4.546875 14.664062 -5.339844 Z M 11.273438 -14.410156 C 11.273438 -13.363281 10.960938 -12.601562 10.339844 -12.09375 C 9.71875 -11.582031 8.898438 -11.328125 7.882812 -11.328125 L 4.097656 -11.328125 L 4.097656 -17.320312 L 7.316406 -17.320312 C 9.945312 -17.320312 11.273438 -16.328125 11.273438 -14.410156 Z M 12.683594 -5.734375 C 12.683594 -4.578125 12.289062 -3.644531 11.5 -2.9375 C 10.734375 -2.230469 9.746094 -1.894531 8.558594 -1.894531 L 4.097656 -1.894531 L 4.097656 -9.351562 L 8.871094 -9.351562 C 9.859375 -9.351562 10.734375 -9.011719 11.5 -8.335938 C 11.835938 -8.023438 12.121094 -7.65625 12.347656 -7.234375 C 12.574219 -6.78125 12.683594 -6.300781 12.683594 -5.734375 Z M 12.683594 -5.734375 "/></g></g></g><g fill="#ffbd59" fill-opacity="1"><g transform="translate(139.002481, 207.776206)"><g><path d="M 12.289062 -6.273438 C 12.289062 -5.027344 11.835938 -3.984375 10.960938 -3.109375 C 10.058594 -2.203125 9.011719 -1.78125 7.769531 -1.78125 C 6.527344 -1.78125 5.453125 -2.203125 4.578125 -3.109375 C 3.671875 -3.984375 3.25 -5.027344 3.25 -6.273438 C 3.25 -7.515625 3.671875 -8.558594 4.578125 -9.464844 C 5.453125 -10.339844 6.527344 -10.792969 7.769531 -10.792969 C 9.011719 -10.792969 10.058594 -10.339844 10.960938 -9.464844 C 11.835938 -8.558594 12.289062 -7.515625 12.289062 -6.273438 Z M 14.265625 -6.273438 C 14.265625 -8.050781 13.617188 -9.578125 12.347656 -10.847656 C 11.074219 -12.121094 9.550781 -12.769531 7.769531 -12.769531 C 5.960938 -12.769531 4.4375 -12.121094 3.164062 -10.847656 C 1.894531 -9.578125 1.269531 -8.050781 1.269531 -6.273438 C 1.269531 -4.464844 1.894531 -2.9375 3.164062 -1.695312 C 4.4375 -0.421875 5.988281 0.199219 7.769531 0.199219 C 9.519531 0.199219 11.074219 -0.421875 12.347656 -1.695312 C 13.617188 -2.9375 14.265625 -4.464844 14.265625 -6.273438 Z M 14.265625 -6.273438 "/></g></g></g><g fill="#ffbd59" fill-opacity="1"><g transform="translate(159.508251, 207.776206)"><g><path d="M 12.289062 -6.273438 C 12.289062 -5.027344 11.835938 -3.984375 10.960938 -3.109375 C 10.058594 -2.203125 9.011719 -1.78125 7.769531 -1.78125 C 6.527344 -1.78125 5.453125 -2.203125 4.578125 -3.109375 C 3.671875 -3.984375 3.25 -5.027344 3.25 -6.273438 C 3.25 -7.515625 3.671875 -8.558594 4.578125 -9.464844 C 5.453125 -10.339844 6.527344 -10.792969 7.769531 -10.792969 C 9.011719 -10.792969 10.058594 -10.339844 10.960938 -9.464844 C 11.835938 -8.558594 12.289062 -7.515625 12.289062 -6.273438 Z M 14.265625 -6.273438 C 14.265625 -8.050781 13.617188 -9.578125 12.347656 -10.847656 C 11.074219 -12.121094 9.550781 -12.769531 7.769531 -12.769531 C 5.960938 -12.769531 4.4375 -12.121094 3.164062 -10.847656 C 1.894531 -9.578125 1.269531 -8.050781 1.269531 -6.273438 C 1.269531 -4.464844 1.894531 -2.9375 3.164062 -1.695312 C 4.4375 -0.421875 5.988281 0.199219 7.769531 0.199219 C 9.519531 0.199219 11.074219 -0.421875 12.347656 -1.695312 C 13.617188 -2.9375 14.265625 -4.464844 14.265625 -6.273438 Z M 14.265625 -6.273438 "/></g></g></g><g fill="#ffbd59" fill-opacity="1"><g transform="translate(180.014022, 207.776206)"><g><path d="M 4.097656 0 L 4.097656 -21.1875 L 2.117188 -21.1875 L 2.117188 0 Z M 4.097656 0 "/></g></g></g><g fill="#ffbd59" fill-opacity="1"><g transform="translate(191.19986, 207.776206)"><g><path d="M 14.664062 -5.339844 C 14.664062 -6.695312 14.324219 -7.855469 13.675781 -8.757812 C 12.996094 -9.664062 12.09375 -10.285156 10.988281 -10.59375 C 11.640625 -10.878906 12.207031 -11.386719 12.628906 -12.148438 C 12.828125 -12.488281 12.96875 -12.828125 13.082031 -13.195312 C 13.195312 -13.5625 13.25 -14.070312 13.25 -14.71875 C 13.25 -15.339844 13.082031 -15.992188 12.796875 -16.613281 C 11.949219 -18.335938 10.113281 -19.210938 7.316406 -19.210938 L 2.117188 -19.210938 L 2.117188 0 L 7.996094 0 C 9.945312 0 11.5 -0.421875 12.683594 -1.328125 C 13.277344 -1.78125 13.757812 -2.375 14.125 -3.109375 C 14.464844 -3.8125 14.664062 -4.546875 14.664062 -5.339844 Z M 11.273438 -14.410156 C 11.273438 -13.363281 10.960938 -12.601562 10.339844 -12.09375 C 9.71875 -11.582031 8.898438 -11.328125 7.882812 -11.328125 L 4.097656 -11.328125 L 4.097656 -17.320312 L 7.316406 -17.320312 C 9.945312 -17.320312 11.273438 -16.328125 11.273438 -14.410156 Z M 12.683594 -5.734375 C 12.683594 -4.578125 12.289062 -3.644531 11.5 -2.9375 C 10.734375 -2.230469 9.746094 -1.894531 8.558594 -1.894531 L 4.097656 -1.894531 L 4.097656 -9.351562 L 8.871094 -9.351562 C 9.859375 -9.351562 10.734375 -9.011719 11.5 -8.335938 C 11.835938 -8.023438 12.121094 -7.65625 12.347656 -7.234375 C 12.574219 -6.78125 12.683594 -6.300781 12.683594 -5.734375 Z M 12.683594 -5.734375 "/></g></g></g><g fill="#ffbd59" fill-opacity="1"><g transform="translate(211.394967, 207.776206)"><g><path d="M 4.097656 -14.15625 L 14.890625 1.1875 L 14.890625 -19.210938 L 12.910156 -19.210938 L 12.910156 -5.085938 L 2.117188 -20.425781 L 2.117188 0 L 4.097656 0 Z M 4.097656 -14.15625 "/></g></g></g><g fill="#ffbd59" fill-opacity="1"><g transform="translate(233.369339, 207.776206)"><g><path d="M 14.664062 -5.339844 C 14.664062 -6.695312 14.324219 -7.855469 13.675781 -8.757812 C 12.996094 -9.664062 12.09375 -10.285156 10.988281 -10.59375 C 11.640625 -10.878906 12.207031 -11.386719 12.628906 -12.148438 C 12.828125 -12.488281 12.96875 -12.828125 13.082031 -13.195312 C 13.195312 -13.5625 13.25 -14.070312 13.25 -14.71875 C 13.25 -15.339844 13.082031 -15.992188 12.796875 -16.613281 C 11.949219 -18.335938 10.113281 -19.210938 7.316406 -19.210938 L 2.117188 -19.210938 L 2.117188 0 L 7.996094 0 C 9.945312 0 11.5 -0.421875 12.683594 -1.328125 C 13.277344 -1.78125 13.757812 -2.375 14.125 -3.109375 C 14.464844 -3.8125 14.664062 -4.546875 14.664062 -5.339844 Z M 11.273438 -14.410156 C 11.273438 -13.363281 10.960938 -12.601562 10.339844 -12.09375 C 9.71875 -11.582031 8.898438 -11.328125 7.882812 -11.328125 L 4.097656 -11.328125 L 4.097656 -17.320312 L 7.316406 -17.320312 C 9.945312 -17.320312 11.273438 -16.328125 11.273438 -14.410156 Z M 12.683594 -5.734375 C 12.683594 -4.578125 12.289062 -3.644531 11.5 -2.9375 C 10.734375 -2.230469 9.746094 -1.894531 8.558594 -1.894531 L 4.097656 -1.894531 L 4.097656 -9.351562 L 8.871094 -9.351562 C 9.859375 -9.351562 10.734375 -9.011719 11.5 -8.335938 C 11.835938 -8.023438 12.121094 -7.65625 12.347656 -7.234375 C 12.574219 -6.78125 12.683594 -6.300781 12.683594 -5.734375 Z M 12.683594 -5.734375 "/></g></g></g><g clip-path="url(#71b5d5462c)"><path fill="#ffbd59" d="M 127.25 181.78125 L 174.6875 150.808594 C 174.6875 150.808594 222.121094 181.78125 222.121094 181.78125 C 222.613281 182.101562 223.269531 181.960938 223.589844 181.464844 C 223.90625 180.96875 223.765625 180.308594 223.273438 179.988281 C 223.273438 179.988281 175.261719 148.640625 175.261719 148.640625 C 174.910156 148.410156 174.460938 148.410156 174.109375 148.640625 C 174.109375 148.640625 126.097656 179.988281 126.097656 179.988281 C 125.609375 180.308594 125.46875 180.96875 125.785156 181.464844 C 126.101562 181.960938 126.757812 182.101562 127.25 181.78125 Z M 127.25 181.78125 " fill-opacity="1" fill-rule="evenodd"/></g><g clip-path="url(#21817318e9)"><path fill="#ffbd59" d="M 186.414062 157.144531 L 195.140625 151.445312 C 195.140625 151.445312 239.988281 181.140625 239.988281 181.140625 C 240.476562 181.464844 241.132812 181.324219 241.453125 180.832031 C 241.773438 180.339844 241.640625 179.675781 241.148438 179.351562 C 241.148438 179.351562 195.726562 149.277344 195.726562 149.277344 C 195.375 149.042969 194.921875 149.042969 194.566406 149.269531 C 194.566406 149.269531 190.707031 151.792969 185.261719 155.347656 C 184.773438 155.667969 184.628906 156.332031 184.949219 156.828125 C 185.265625 157.320312 185.921875 157.464844 186.414062 157.144531 Z M 186.414062 157.144531 " fill-opacity="1" fill-rule="evenodd"/></g><path fill="#ffbd59" d="M 153.015625 164 L 153.015625 155.921875 C 153.015625 155.335938 152.542969 154.855469 151.960938 154.855469 L 143.132812 154.855469 C 142.546875 154.855469 142.078125 155.335938 142.078125 155.921875 L 142.078125 170.136719 C 142.078125 170.726562 142.546875 171.203125 143.132812 171.203125 C 143.714844 171.203125 144.1875 170.726562 144.1875 170.136719 L 144.1875 156.984375 C 144.1875 156.984375 150.902344 156.984375 150.902344 156.984375 L 150.902344 164 C 150.902344 164.585938 151.378906 165.0625 151.960938 165.0625 C 152.542969 165.0625 153.015625 164.585938 153.015625 164 Z M 153.015625 164 " fill-opacity="1" fill-rule="evenodd"/></svg>